<svg id="light" xmlns="http://www.w3.org/2000/svg" xmlns:xlink="http://www.w3.org/1999/xlink" width="700" height="931.801" viewBox="0 0 700 931.801">
  <defs>
    <radialGradient id="radial-gradient" cx="0.553" cy="0.479" r="0.503" gradientUnits="objectBoundingBox">
      <stop offset="0" stop-color="#0068ff"/>
      <stop offset="0.11" stop-color="#0057e2"/>
      <stop offset="0.33" stop-color="#0038af"/>
      <stop offset="0.54" stop-color="#002086"/>
      <stop offset="0.72" stop-color="#000e69"/>
      <stop offset="0.88" stop-color="#000457"/>
      <stop offset="1" stop-color="#000051"/>
    </radialGradient>
    <radialGradient id="radial-gradient-2" cx="0.488" cy="0.517" r="0.499" xlink:href="#radial-gradient"/>
    <linearGradient id="linear-gradient" x1="0.5" y1="1" x2="0.5" gradientUnits="objectBoundingBox">
      <stop offset="0"/>
      <stop offset="0.09" stop-color="#000306"/>
      <stop offset="0.22" stop-color="#000a18"/>
      <stop offset="0.36" stop-color="#001635"/>
      <stop offset="0.52" stop-color="#00265e"/>
      <stop offset="0.7" stop-color="#003c92"/>
      <stop offset="0.88" stop-color="#0055d1"/>
      <stop offset="1" stop-color="#0068ff"/>
    </linearGradient>
    <linearGradient id="linear-gradient-2" xlink:href="#linear-gradient"/>
    <radialGradient id="radial-gradient-3" cx="0.488" cy="0.518" r="0.499" xlink:href="#radial-gradient"/>
  </defs>
  <path id="Path" d="M59.849,9.613C63.481,27.416.486,35.168,0,9.613-.162,1.35,56.448-7.083,59.849,9.613Z" transform="translate(77 193.801)" fill="#234be6" opacity="0.52" style="mix-blend-mode: screen;isolation: isolate"/>
  <path id="Path-2" data-name="Path" d="M171.674,77.272S6.866,55.233.333,81.1s85.215,32.276,92.262,31.26-23.8,31.26-23.941,50.876,134.123,28.447,144.67,8.44S177.717,143.7,177.9,128.148s156.57,23.445,179.858,0-9.124-47.672-11.97-56.347S462.181,66.409,467.9,42.573,238.782-15.806,220.091,8.03s80.292,38.216,84,42.748S202.941,68.6,170.717,52.967,190.084,14.751,192.137,8.03,98.615,5.685,98.032,23.738,166.143,41.322,171.674,77.272Z" transform="translate(123 61.801)" fill="#234be6" opacity="0.52" style="mix-blend-mode: screen;isolation: isolate"/>
  <path id="Path-3" data-name="Path" d="M63.888,1.759C88.2-1.03,143.647-1.8,146.924,9.506S47.108,20.12,38.347,27.867,99.793,43.361,102.838,51.5.257,66.989,0,53.664,37.022,43.051,38.347,37.318,25.4,29.571,25.821,22.909,48.851,3.464,63.888,1.759Z" transform="translate(281 280.801)" fill="#234be6" opacity="0.52" style="mix-blend-mode: screen;isolation: isolate"/>
  <path id="Path-4" data-name="Path" d="M63.888,1.7C88.2-1.005,143.647-1.779,146.924,9.445S47.108,20.051,38.347,27.792,99.793,43.274,102.861,51.48.257,66.963,0,53.648,37.022,42.965,38.347,37.236,25.4,29.5,25.821,22.915,48.851,3.407,63.888,1.7Z" transform="translate(553 238.801)" fill="#234be6" opacity="0.52" style="mix-blend-mode: screen;isolation: isolate"/>
  <path id="Path-5" data-name="Path" d="M317.561,85.585c-2.477,18.588-144.273,24.623-144.671,6.437s24.1-16.093,24.68-25.266-67.778,5.15-75.233,14.645,29.869,32.75,31.669,56.729-67.334,17.622-67.544,1.77,24.634-31.462,26.69-45.222S-1.252,92.183.01,73.917,125.142,65.227,141.5,61.928s146.213-5.874,153.879-18.1S251.3,14.212,252.635,7.774s90.822-13.679,91.36,0-38.026,16.737-41.812,32.186S321.16,58.548,317.561,85.585Z" transform="translate(160 80.801)" fill="#234be6"/>
  <path id="Path-6" data-name="Path" d="M0,7.5c0,10.708,27.268,9.266,27.987,0S.144-3.208,0,7.5Z" transform="translate(237 74.801)" fill="#2385ff"/>
  <path id="Path-7" data-name="Path" d="M0,7.5c0,10.748,27.268,9.223,27.987,0S.024-3.248,0,7.5Z" transform="translate(216 206.801)" fill="#2385ff"/>
  <path id="Path-8" data-name="Path" d="M0,4.518c0,4.59,9.736,3.96,10,0S0-.162,0,4.518Z" transform="translate(302 331.801)" fill="#2385ff"/>
  <path id="Path-9" data-name="Path" d="M0,6.108c.255-8.77,32.266-8.068,32.986,1.929S-.346,17.157,0,6.108Z" transform="translate(433 281.801)" fill="#234be6"/>
  <path id="Path-10" data-name="Path" d="M.02,8.233C-1.3,20.874,62.826,23.6,63.984,9.813S1.109-2.037.02,8.233Z" transform="translate(356 279.801)" fill="#234be6"/>
  <path id="Oval" d="M84.319,143.279c49.772-1.237,92.809-34.306,96.126-73.861S146.1-1.2,96.329.036,3.52,34.341.2,73.9,34.547,144.516,84.319,143.279Z" transform="matrix(0.035, -0.999, 0.999, 0.035, 130.461, 237.782)" fill="url(#radial-gradient)" style="mix-blend-mode: lighten;isolation: isolate"/>
  <path id="Oval-2" data-name="Oval" d="M105.4,182.4c58.957-2.968,107.358-46.169,108.107-96.493S167.073-2.807,108.116.161.758,46.33.009,96.654,46.447,185.366,105.4,182.4Z" transform="translate(351.457 77.275) rotate(-1.21)" fill="url(#radial-gradient-2)" style="mix-blend-mode: lighten;isolation: isolate"/>
  <path id="Path-11" data-name="Path" d="M32.354,6.85,0,671.531,161.168,732,165,0,32.354,6.85Z" transform="translate(111 142.801)" opacity="0.2" fill="url(#linear-gradient)" style="mix-blend-mode: screen;isolation: isolate"/>
  <path id="Path-12" data-name="Path" d="M16.369,2.365,0,507l92-29.875L69.979,0,16.369,2.365Z" transform="translate(237 143.801)" opacity="0.2" fill="url(#linear-gradient-2)" style="mix-blend-mode: screen;isolation: isolate"/>
  <path id="Path-13" data-name="Path" d="M59.79,0,0,588.516,85.274,637,116,3.159,59.79,0Z" transform="translate(16 196.801)" opacity="0.4" fill="url(#linear-gradient-2)" style="mix-blend-mode: screen;isolation: isolate"/>
  <path id="Path-14" data-name="Path" d="M0,5.673,19.9,764,185,732.328,130.233,0,0,5.673Z" transform="translate(332 167.801)" opacity="0.2" fill="url(#linear-gradient)" style="mix-blend-mode: screen;isolation: isolate"/>
  <path id="Path-15" data-name="Path" d="M122.65,0,183,704,57.984,694.418,0,0Z" transform="translate(468 93.801)" opacity="0.2" fill="url(#linear-gradient-2)" style="mix-blend-mode: screen;isolation: isolate"/>
  <path id="Path-16" data-name="Path" d="M0,0,40.2,656,98,648.328,43.307,14.87,0,0Z" transform="translate(440 89.801)" opacity="0.4" fill="url(#linear-gradient)" style="mix-blend-mode: screen;isolation: isolate"/>
  <path id="Path-17" data-name="Path" d="M8.666,15.457,0,613.331,93,620,57.8,0,8.666,15.457Z" transform="translate(298 283.801)" opacity="0.4" fill="url(#linear-gradient)" style="mix-blend-mode: screen;isolation: isolate"/>
  <path id="Path-18" data-name="Path" d="M35.04,0,0,553.371,37.443,559,64,5.787,35.04,0Z" transform="translate(73 193.801)" opacity="0.2" fill="url(#linear-gradient)" style="mix-blend-mode: screen;isolation: isolate"/>
  <path id="Path-19" data-name="Path" d="M0,16.914c-.209,3.222,42.035,19.332,42.824,14.02s-1.507-6.357-.927-14.02,37.1-1.742,38.094-11.408S1.322-1.547,0,16.914Z" transform="translate(350 59.801)" fill="#2385ff"/>
  <path id="Path-20" data-name="Path" d="M.1,6.863c-1.692,11.659,17.8,10.009,17.9,0S1.3-1.387.1,6.863Z" transform="translate(437 85.801)" fill="#2385ff"/>
  <path id="Path-21" data-name="Path" d="M.1,3.922c-1.692,7.251,17.8,6.167,17.9.339S1.3-1.16.1,3.922Z" transform="translate(103 194.801)" fill="#2385ff"/>
  <path id="Path-22" data-name="Path" d="M.015,12.314c-.821,4.54,31.449,8.95,32.833,5.383s-1.947-4.021-.469-8.886S58.528,7.968,59,2.326,1.915,1.807.015,12.314Z" transform="translate(464 81.801)" fill="#2385ff"/>
  <path id="Path-23" data-name="Path" d="M.025,2.873C-.888,8.563,23.309,13.912,23,1.175,23,1.43.962-2.561.025,2.873Z" transform="translate(528 97.801)" fill="#2385ff"/>
  <path id="Path-24" data-name="Path" d="M.06,6.35C-2.058,18.1,52.722,29.117,51.993,2.9,52.061,2.825,2.338-5.474.06,6.35Z" transform="translate(0 177.801)" fill="#2385ff"/>
  <path id="Path-25" data-name="Path" d="M0,11.143c2.9,9.066,42.649,13.1,52-3.657C34.785-3.606,17.06-2.36,0,11.143Z" transform="translate(287 1.801)" fill="#234be6" opacity="0.52" style="mix-blend-mode: screen;isolation: isolate"/>
  <path id="Path-26" data-name="Path" d="M0,8.654c2.333,7.532,34.533,10.319,42-2.787C28.1-2.8,13.781-1.854,0,8.654Z" transform="translate(229 329.801)" fill="#234be6" opacity="0.52" style="mix-blend-mode: screen;isolation: isolate"/>
  <path id="Path-27" data-name="Path" d="M.036,4.936C-1.235,14.546,31.449,22.81,31,2.245,30.882,2.245,1.171-4.289.036,4.936Z" transform="translate(547 438.801)" fill="#234be6" opacity="0.52" style="mix-blend-mode: screen;isolation: isolate"/>
  <path id="Path-28" data-name="Path" d="M.027,3.032C-.912,8.605,23.333,13.763,23,1.368,23,1.368.965-2.625.027,3.032Z" transform="translate(144 142.801)" fill="#2376e6"/>
  <path id="Path-29" data-name="Path" d="M0,23.931c-.631,8.182,79.49,15.219,80.518,8.182S61.258,19.759,60.86,13.295s33.409-1.064,34.134-9.246-64.317-1.718-68.127,0,5.167,1.636,6.149,6.627S.635,15.995,0,23.931Z" transform="translate(337 142.801)" fill="#2385ff"/>
  <path id="Path-30" data-name="Path" d="M18.447,0,0,285H42.556L46,.239,18.447,0Z" transform="translate(198 219.801)" opacity="0.3" fill="url(#linear-gradient)" style="mix-blend-mode: screen;isolation: isolate"/>
  <path id="Oval-3" data-name="Oval" d="M105.4,182.4c58.957-2.968,107.358-46.169,108.107-96.493S167.073-2.807,108.116.161.758,46.33.009,96.654,46.447,185.366,105.4,182.4Z" transform="translate(377.138 4.509) rotate(-1.21)" fill="url(#radial-gradient-3)" style="mix-blend-mode: lighten;isolation: isolate"/>
</svg>
