<svg id="Group_2" data-name="Group 2" xmlns="http://www.w3.org/2000/svg" width="100" height="100" viewBox="0 0 100 100">
  <path id="path-13" d="M0,15V11.6l-9.07,5.335-4.769-2.809-2.326,1.368L-8.5,20ZM0,9.593V5.981l-12.137,7.14,3.068,1.807Zm-4.937-2.71-3.087-1.8L-17,10.367v3.612Zm-3.091-3.8,4.78,2.8,2.381-1.4L-8.5,0-17,5V8.365Z" transform="translate(58 10)" fill="#5bebf3"/>
  <path id="Fill_2" data-name="Fill 2" d="M98.438,100H1.562A1.564,1.564,0,0,1,0,98.438V59.376H.039c0-.031,0-.062,0-.092a1.173,1.173,0,0,1,.029-.357L4.754,43.3a1.573,1.573,0,0,1,1.5-1.113H34.375V29.094a18.75,18.75,0,1,1,31.251,0V42.188H93.75a1.573,1.573,0,0,1,1.5,1.113l4.687,15.625a1.173,1.173,0,0,1,.029.357c0,.031,0,.062,0,.092H100V98.438A1.564,1.564,0,0,1,98.438,100ZM84.374,73.436a4.675,4.675,0,0,1,1.563,9.086V87.5A1.574,1.574,0,0,1,85.48,88.6l-4.231,4.231v4.039H96.874V69.12a6.987,6.987,0,0,1-9.586-1.731A7.723,7.723,0,0,1,75,67.139a7.743,7.743,0,0,1-12.5,0,7.743,7.743,0,0,1-12.5,0,7.742,7.742,0,0,1-12.5,0,7.743,7.743,0,0,1-12.5,0,7.723,7.723,0,0,1-12.29.25,7.19,7.19,0,0,1-2.444,2.122,6.867,6.867,0,0,1-3.235.8A6.986,6.986,0,0,1,3.124,69.12V96.874h7.813V76.562A1.564,1.564,0,0,1,12.5,75H25a1.564,1.564,0,0,1,1.562,1.562V96.874H37.5V92.835L33.269,88.6a1.57,1.57,0,0,1-.457-1.105V82.522a4.687,4.687,0,1,1,3.125,0V86.85l4.23,4.231a1.552,1.552,0,0,1,.457,1.105v4.688H50V92.835L45.769,88.6a1.573,1.573,0,0,1-.456-1.105V82.522a4.687,4.687,0,1,1,3.125,0V86.85l4.23,4.231a1.57,1.57,0,0,1,.457,1.105v4.688h4.687V82.522a4.688,4.688,0,1,1,3.126,0V96.874h4.687V92.186a1.57,1.57,0,0,1,.457-1.105l4.23-4.231V82.522a4.688,4.688,0,1,1,3.126,0V87.5A1.574,1.574,0,0,1,72.98,88.6l-4.231,4.231v4.039h9.375V92.186a1.552,1.552,0,0,1,.457-1.105l4.23-4.231V82.522a4.675,4.675,0,0,1,1.562-9.086ZM14.062,78.124V96.874h9.375V78.124Zm70.313-1.562a1.563,1.563,0,1,0,1.562,1.562A1.564,1.564,0,0,0,84.374,76.561Zm-12.5,0a1.563,1.563,0,1,0,1.563,1.562A1.564,1.564,0,0,0,71.874,76.561Zm-12.5,0a1.563,1.563,0,1,0,1.562,1.562A1.564,1.564,0,0,0,59.374,76.561Zm-12.5,0a1.563,1.563,0,1,0,1.562,1.562A1.564,1.564,0,0,0,46.875,76.561Zm-12.5,0a1.563,1.563,0,1,0,1.562,1.562A1.564,1.564,0,0,0,34.375,76.561ZM89.063,60.938v2.344a3.906,3.906,0,1,0,7.812,0V60.938Zm-12.5,0V62.5a4.688,4.688,0,0,0,9.375,0V60.938Zm-73.437,0v2.344a3.906,3.906,0,0,0,7.812,0V60.938Zm60.937,0V62.5a4.687,4.687,0,0,0,9.374,0V60.937Zm-12.5,0V62.5a4.687,4.687,0,1,0,9.374,0V60.937Zm-12.5,0V62.5a4.687,4.687,0,0,0,9.374,0V60.937Zm-12.5,0V62.5a4.688,4.688,0,0,0,9.375,0V60.937Zm-12.5,0V62.5a4.688,4.688,0,0,0,9.375,0V60.937Zm75-15.625v12.5h7.273l-3.749-12.5Zm-12.5,0v12.5h9.375v-12.5Zm-12.5,0v12.5h9.374v-12.5Zm-12.5,0v12.5h9.374v-12.5Zm-12.5,0v12.5h9.374v-12.5Zm-12.5,0v12.5h9.375v-12.5Zm-12.5,0v12.5h9.375v-12.5Zm-6.649,0-3.749,12.5h7.273v-12.5Zm36.338-8.906v5.782h12.5V36.406a18.391,18.391,0,0,1-12.5,0ZM62.5,32.684a18.992,18.992,0,0,1-3.125,2.277v7.226H62.5Zm-25,0v9.5h3.125V34.964A19.193,19.193,0,0,1,37.5,32.687ZM50,3.125A15.625,15.625,0,1,0,65.624,18.75,15.643,15.643,0,0,0,50,3.125Z" fill="#0e95fc"/>
</svg>
