<svg xmlns="http://www.w3.org/2000/svg" xmlns:xlink="http://www.w3.org/1999/xlink" width="280" height="312.612" viewBox="0 0 280 312.612">
  <defs>
    <linearGradient id="linear-gradient" x1="0.5" y1="1" x2="0.5" gradientUnits="objectBoundingBox">
      <stop offset="0" stop-color="#0b1347"/>
      <stop offset="1" stop-color="#001060"/>
    </linearGradient>
    <radialGradient id="radial-gradient" cx="0.482" cy="0.643" r="0.499" gradientTransform="matrix(-1, 0, 0, 1, 0.964, 0)" gradientUnits="objectBoundingBox">
      <stop offset="0" stop-color="#ffae00"/>
      <stop offset="0.12" stop-color="#d18e00"/>
      <stop offset="0.3" stop-color="#926400"/>
      <stop offset="0.48" stop-color="#5e4000"/>
      <stop offset="0.64" stop-color="#352400"/>
      <stop offset="0.78" stop-color="#181000"/>
      <stop offset="0.91" stop-color="#060400"/>
      <stop offset="1"/>
    </radialGradient>
    <radialGradient id="radial-gradient-2" cx="0.277" cy="0.47" r="0.498" gradientTransform="matrix(-1, 0, 0, 1, 0.553, 0)" xlink:href="#radial-gradient"/>
    <radialGradient id="radial-gradient-3" cx="-1.588" cy="0.5" r="0.497" gradientTransform="matrix(-1, 0, 0, 1, -3.176, 0)" xlink:href="#radial-gradient"/>
  </defs>
  <g id="stone_4" data-name="stone 4" transform="translate(280)">
    <path id="Path" d="M-280,286l58.364-38.214,8.338-23.348c7.3-11.539,15.988-18.5,28.181-26.758l17.426-2.245,9.276,2.682,18.447.748,18.53-9.543,21.657-24.429,19.51-5.052,16.821,16.113V123.207l5.816-10.687V77.841l2.918-16.4,2.9-42.122L-47.525,0l4.669,28.567.667,26.488,16.571,90.191,23.533,19.481L0,284.649l-54.716,26.963L-105,276l-77,35.612Z" transform="translate(0 1)" fill="url(#linear-gradient)"/>
    <path id="Path-2" data-name="Path" d="M-59.426,28.834-63,38.61-42.411,42l22.366-1.468L-2.028,26.994,0,7.42-4.41,2.666-13.733,0-31.166,2.232-53.991,21.413l-5.435,7.42Z" transform="translate(-154 196)" fill="#082264"/>
    <path id="Path-3" data-name="Path" d="M-55,28.879-37.065,34l20.329-1.763,11-5.457C-1.658,18.238.568,11.627-.125,2.1L-13.377,0-26.229,1.6C-38.6,7.094-44.437,11.774-55,28.879Z" transform="translate(-157 201)" fill="#ff8337"/>
    <path id="Path-4" data-name="Path" d="M-49,16.992S-26.908,1.5,0,0L-5.026,13.9-16,19.247-36.268,21Z" transform="translate(-158 213)" fill="#fc0"/>
    <path id="Path-5" data-name="Path" d="M-158.333,170.1l4.4,4.8-2.083,19.753-17.958,13.662,5.625,17.083-35.292,11.556L-234,249.2l46.083,8.8,26.3,14.695L-127.958,258l-10.708-34.271-2.083-3.629a87.6,87.6,0,0,1,36.771-24.738l11.25-2.086,4.063,10.325,7.563,26.511.792,3.254,3.938,24.551,15.6-20.546,21.917-5.986,24.083-1.585L-32,272.695,0,256.915-2.083,136.6l-23.5-19.545L-42.25,26.574-42.917,0l-2.542,8.343V28.889l-2.458,2.941v75.821l-5.333,2.378-4,36.92-6.25.918L-80.312,131.7l5.063,11.785-1.521,7.238-6.083,20.859-27.354.667-11.146-10.909-18.521,9.574Z" transform="translate(0 29)" fill="#610051" opacity="0.5" style="mix-blend-mode: multiply;isolation: isolate"/>
    <path id="Path-6" data-name="Path" d="M-59.936,27.129c-1.55,4.163,25.5,20.126,34.066,22.52S-.478,41.573-.017,37.161-8.544,2.923-11.708.384-52.876,8.023-59.936,27.129Z" transform="translate(-81 221)" fill="#081a64"/>
    <path id="Path-7" data-name="Path" d="M-25,5.161-15.331,12H0L-5.153,0-25,5.161Z" transform="translate(-75 160)" fill="#082264"/>
    <path id="Path-8" data-name="Path" d="M-16,10.995h8.1L0,16-2.5,5.947-10.04,0-16,10.995Z" transform="translate(-48 113)" fill="#222264"/>
    <path id="Path-9" data-name="Path" d="M-13,78.345l7.417-9.814L-3.1,90V60.746l-4.951-11.07,2.486-24.629L0,16.929-2.781,0l-4.34,19.44-3.54,45.827L-13,78.345Z" transform="translate(-45)" fill="#08227d"/>
    <path id="Path-10" data-name="Path" d="M0,29.854C-.462,34.6-12.145,36.833-19.293,37c-5,0-14.631-6.062-20.629-11.958h0a18.751,18.751,0,0,1-4.933-6.917c-1.756-6.5,12.9-15.416,20.023-17.375s16.365,0,19.521,4.9A41.178,41.178,0,0,1-1.4,17.375,52.378,52.378,0,0,1,0,29.854Z" transform="translate(-88 229)" fill="#ff8337"/>
    <path id="Path-11" data-name="Path" d="M0,14.963C-.461,19.641-12.168,21.836-19.33,22-24.335,22-33.99,16.03-40,10.224c.461-.41,19.351-16.145,38.492-7.775v.226A50.736,50.736,0,0,1,0,14.963Z" transform="translate(-88 244)" fill="#fc0"/>
    <path id="Path-12" data-name="Path" d="M-.254,3.579A16.754,16.754,0,0,0-6.828.142,2.955,2.955,0,0,0-8.034.015,2.289,2.289,0,0,0-9.7,1.512a4.562,4.562,0,0,0,1.315,5.1,6.251,6.251,0,0,0,5.435,1.2A4.11,4.11,0,0,0-.341,6.151,2.153,2.153,0,0,0-.736,3.368a.473.473,0,0,0-.329.321.451.451,0,0,0,.11.438Z" transform="translate(-172 212)" fill="#fff200"/>
    <path id="Path-13" data-name="Path" d="M-1.183.924A3.617,3.617,0,0,0-4.937.261,4.931,4.931,0,0,0-3.811,4.283,2.319,2.319,0,0,0-2.025,5,2.376,2.376,0,0,0-.314,4.084c.79-1.171,0-3.271-1.4-3.094Z" transform="translate(-170 225)" fill="#fff200"/>
    <path id="Path-14" data-name="Path" d="M-.3.127a5.02,5.02,0,0,0-1.34,0H-1.8a.16.16,0,0,0,0,.16c0,.46.64.84.46,1.26,0,0-.1.16,0,.24a.384.384,0,0,0,.34.12,1.24,1.24,0,0,0,.732-.742A1.24,1.24,0,0,0-.359.127H-.3Z" transform="translate(-150 217)" fill="#fff200"/>
    <path id="Path-15" data-name="Path" d="M-.121.112a7.391,7.391,0,0,0-2.568,0h-.283a.55.55,0,0,0,0,.347c0,1.017,1.253,1.825.89,2.772,0,.162-.182.323-.162.508s.425.323.667.231a2.54,2.54,0,0,0,1.4-1.616A3.019,3.019,0,0,0-.364.089L0,.228Z" transform="translate(-172 191)" fill="#fff200"/>
    <path id="Path-16" data-name="Path" d="M-.12.778A2,2,0,0,0-1.88.5a2,2,0,0,0,.28.78.68.68,0,0,0,.72.3c.36,0,.5-.52.58-.88l.18.26Z" transform="translate(-190 217)" fill="#fff200"/>
    <path id="Path-17" data-name="Path" d="M-2.542.238a.827.827,0,0,0-.492,0,.934.934,0,0,0-.284.38A7.245,7.245,0,0,1-4,1.8l2.1-.52h.17c.208,0,.246.32.4.46s.549,0,.8,0C1.17.438-1.671.418-2.542.238Z" transform="translate(-191 221)" fill="#fff200"/>
    <path id="Path-18" data-name="Path" d="M-2.549.194a.642.642,0,0,0-.471,0,.677.677,0,0,0-.283.4A8.847,8.847,0,0,1-4,1.754l2.111-.5a.25.25,0,0,1,.17,0c.188,0,.245.32.377.46a.665.665,0,0,0,.811,0C1.165.354-1.663.334-2.549.194Z" transform="translate(-201 184)" fill="#fff200"/>
    <path id="Path-19" data-name="Path" d="M-1.135.8l-.66.12a1.08,1.08,0,0,0,.9.86c.44,0,.86-.52.62-.9s-.5-.52-.26-.66Z" transform="translate(-202 208)" fill="#fff200"/>
    <path id="Path-20" data-name="Path" d="M-.559.18A.92.92,0,0,1-.126,1.272a.92.92,0,0,1-.993.628.92.92,0,0,1-.8-.86.96.96,0,0,1,.447-.8A.96.96,0,0,1-.559.18Z" transform="translate(-189 173)" fill="#fff200"/>
    <path id="Path-21" data-name="Path" d="M-1.676.347c.46-.22,1.1-.38,1.38,0s0,.9-.42,1.24-.34.32-.54.26-.12-1.06-.56-1.28a.14.14,0,0,1,.28,0Z" transform="translate(-181 199)" fill="#fff200"/>
    <path id="Path-22" data-name="Path" d="M-.48,1.234a.669.669,0,0,1,.48,0,1.339,1.339,0,0,1-1.049.7c-.409.1-.534,0-.658-.16s0-.36,0-.54-.427-.72-.249-1.04a.38.38,0,0,1,.5-.12,1.285,1.285,0,0,1,.427.42l.765,1.08Z" transform="translate(-182 220)" fill="#fff200"/>
    <path id="Path-23" data-name="Path" d="M-1.009.47c-.34-.18-.68.38-.5.72a1.34,1.34,0,0,0,.98.54A1.34,1.34,0,0,0-.869.27Z" transform="translate(-179 228)" fill="#fff200"/>
    <path id="Path-24" data-name="Path" d="M-.806.026a1.541,1.541,0,0,0-.56,0,.5.5,0,0,0-.4.312c0,.277.3.451.4.711s0,.59.14.8A.58.58,0,0,0-.826,2a.58.58,0,0,0,.4-.154,1.1,1.1,0,0,0,.18-.78,1.413,1.413,0,0,0-.2-.694.673.673,0,0,0-.72-.208Z" transform="translate(-139 237)" fill="#fff200"/>
    <path id="Path-25" data-name="Path" d="M-.523.7a.34.34,0,0,1,0,.48.74.74,0,0,1-.48.24.88.88,0,0,1-.32,0,.48.48,0,0,1-.2-.64.52.52,0,0,1,.66-.16.54.54,0,0,1,.2.66Z" transform="translate(-188 226)" fill="#fff200"/>
    <path id="Path-26" data-name="Path" d="M-.528.7a.34.34,0,0,1,0,.48.7.7,0,0,1-.48.24.88.88,0,0,1-.32,0,.46.46,0,0,1-.227-.282A.46.46,0,0,1-1.508.78.5.5,0,0,1-.868.62a.54.54,0,0,1,.2.66Z" transform="translate(-196 252)" fill="#fff200"/>
    <path id="Path-27" data-name="Path" d="M-.658,1.2A.54.54,0,0,0-.814.685.54.54,0,0,0-1.338.561a.88.88,0,0,0,0,.6.48.48,0,0,0,.48.3.3.3,0,0,0,.224-.176A.3.3,0,0,0-.658,1Z" transform="translate(-188 223)" fill="#fff200"/>
    <path id="Path-28" data-name="Path" d="M-.652,1.194A.52.52,0,0,0-.8.679a.52.52,0,0,0-.527-.1.96.96,0,0,0,0,.58.44.44,0,0,0,.46.3.3.3,0,0,0,.224-.176A.3.3,0,0,0-.672.994Z" transform="translate(-199 198)" fill="#fff200"/>
    <path id="Path-29" data-name="Path" d="M-.419.7A1.54,1.54,0,0,0-1.6.063V1.2a1.1,1.1,0,0,0,.12.52.6.6,0,0,0,.46.215.6.6,0,0,0,.46-.215.84.84,0,0,0,0-.98Z" transform="translate(-186 214)" fill="#fff200"/>
    <path id="Path-30" data-name="Path" d="M-1.911.827-.05.527c.186.3-.186.62-.484.74a1.751,1.751,0,0,1-.968.2.6.6,0,0,1-.465-.78Z" transform="translate(-176 206)" fill="#fff200"/>
    <path id="Path-31" data-name="Path" d="M-.314.479A.74.74,0,0,0-.87.05a.74.74,0,0,0-.664.229,1.1,1.1,0,0,0,0,1.4.84.84,0,0,0,.58.28.78.78,0,0,0,.68-.62,2.12,2.12,0,0,0,0-1Z" transform="translate(-167 206)" fill="#fff200"/>
    <path id="Path-32" data-name="Path" d="M-.614.978a1.2,1.2,0,0,0-1.06-.82,1.44,1.44,0,0,0,0,1,.94.94,0,0,0,1,.68c.44,0,.62-.8.2-1Z" transform="translate(-185 199)" fill="#fff200"/>
    <path id="Path-33" data-name="Path" d="M-.8.62a.72.72,0,0,1,.36.8l-1.04.16a.82.82,0,0,1-.03-.692A.82.82,0,0,1-1,.42Z" transform="translate(-181 203)" fill="#fff200"/>
    <path id="Path-34" data-name="Path" d="M-.732.449l.4-.16a2.22,2.22,0,0,1-.18.96.78.78,0,0,1-.78.46.467.467,0,0,1-.28-.74,1.84,1.84,0,0,1,.86-.48Z" transform="translate(-170 207)" fill="#fff200"/>
    <path id="Path-35" data-name="Path" d="M-.79.41a.72.72,0,0,1,.28.72.74.74,0,0,1-.54.54c-.18,0-.42,0-.44-.24a.42.42,0,0,1,0-.22L-.97.33l.14.12Z" transform="translate(-184 230)" fill="#fff200"/>
    <path id="Path-36" data-name="Path" d="M-.485.24c-.24.207-.14.552,0,.811s.26.587,0,.828A.308.308,0,0,1-.705,2c-.24,0-.28-.276-.4-.466a2.154,2.154,0,0,0-.36-.362.83.83,0,0,1,0-1.087.727.727,0,0,1,.68,0,.506.506,0,0,1,.26.535Z" transform="translate(-185 236)" fill="#fff200"/>
    <path id="Path-37" data-name="Path" d="M-.92.653h-.4a.48.48,0,0,0,.1.58.4.4,0,0,0,.56,0,.36.36,0,0,0,0-.3A.36.36,0,0,0-.88.733Z" transform="translate(-188 235)" fill="#fff200"/>
    <path id="Path-38" data-name="Path" d="M-.861.654h-.38a.46.46,0,0,0,0,.58.38.38,0,0,0,.27.113A.38.38,0,0,0-.7,1.234.34.34,0,0,0-.685.928.34.34,0,0,0-.921.734Z" transform="translate(-193 243)" fill="#fff200"/>
    <path id="Path-39" data-name="Path" d="M-1.994,1.857c.2.143.468,0,.507-.346a5.274,5.274,0,0,0,0-.774A.99.99,0,0,1-1.136.064a.358.358,0,0,1,.41,0,.536.536,0,0,1,.215.2A2.844,2.844,0,0,1,0,1.673,1.275,1.275,0,0,1-.668,2.916a.9.9,0,0,1-.956-.122,1.082,1.082,0,0,1-.371-.937Z" transform="translate(-186 219)" fill="#fff200"/>
    <path id="Path-40" data-name="Path" d="M-1.994,1.872c.2.143.468-.1.507-.368a5.319,5.319,0,0,0,0-.777A1.037,1.037,0,0,1-1.136.052a.43.43,0,0,1,.41,0,.537.537,0,0,1,.215.2A2.864,2.864,0,0,1,0,1.668,1.281,1.281,0,0,1-.668,2.915a.9.9,0,0,1-.956-.123,1.089,1.089,0,0,1-.371-.941Z" transform="translate(-213 196)" fill="#fff200"/>
    <path id="Path-41" data-name="Path" d="M-.51.515a.6.6,0,0,0-.84,0,.84.84,0,0,0-.22.86c0,.14.12.3.26.28a.38.38,0,0,0,.22-.18l.7-.92Z" transform="translate(-193 215)" fill="#fff200"/>
    <path id="Path-42" data-name="Path" d="M-.2,2.978A3.692,3.692,0,0,0-.7.3a.624.624,0,0,0-.33-.3c-.352,0-.484.435-.638.756s-.947.756-1.211,1.283a2.378,2.378,0,0,0,0,1.466c.132.687.506,1.581,1.189,1.489A1.266,1.266,0,0,0-.9,4.329,7.014,7.014,0,0,0,0,2.2Z" transform="translate(-138 215)" fill="#fff200"/>
    <path id="Path-43" data-name="Path" d="M-.976,1.513c.3-.449-.239-1.01-.694-1.28a1.14,1.14,0,0,0-.954-.2c-.39.2-.412.786-.347,1.257a5.084,5.084,0,0,0,.152,1.19c.152.4,0,.382.2.472a.546.546,0,0,0,.456,0A5.276,5.276,0,0,0,0,1.917Z" transform="translate(-184 185)" fill="#fff200"/>
    <path id="Path-44" data-name="Path" d="M-1.081,5.08C2.13,1.65-2.509-1.488-5.921.757S-3.8,8.072-1.081,5.08Z" transform="translate(-172 193)" fill="#fff200"/>
    <path id="Path-45" data-name="Path" d="M-.738.668A.832.832,0,0,1-.7,1.477,1.016,1.016,0,0,1-1.4,2,2.136,2.136,0,0,1-1.738.721.851.851,0,0,1-.7.029L-.258.7Z" transform="translate(-176 223)" fill="#fff200"/>
    <path id="Path-46" data-name="Path" d="M-1.2.223c-.16-.335-.38-.156-.44.2a4.446,4.446,0,0,0,0,1.249c.14.959.28,1.918.4,2.855a3.2,3.2,0,0,0,.42,1.4c.2.178.4,0,.46-.468a6.112,6.112,0,0,0,0-1.36A8.187,8.187,0,0,0-1.417,0l-.16.758Z" transform="translate(-189 114)" fill="#fff200"/>
    <path id="Path-47" data-name="Path" d="M-.477.938a.28.28,0,0,1,0,.38.62.62,0,0,1-.36.22.74.74,0,0,1-.36,0,.52.52,0,0,1-.4-.5.66.66,0,0,1,.36-.56.36.36,0,0,1,.32,0,.22.22,0,0,1,.16.26Z" transform="translate(-186 240)" fill="#fff200"/>
    <path id="Path-48" data-name="Path" d="M-.811.8h-.42a.88.88,0,0,0,0,.6c.12.18.44.18.5,0a.44.44,0,0,0,0-.22l-.2-.72Z" transform="translate(-191 224)" fill="#fff200"/>
    <path id="Path-49" data-name="Path" d="M-.131.472a2.64,2.64,0,0,0-.94-.26.84.84,0,0,0-.8.48.78.78,0,0,0,0,.48.96.96,0,0,0,1.22.56.94.94,0,0,0,.5-.521A.94.94,0,0,0-.171.492Z" transform="translate(-193 210)" fill="#fff200"/>
    <path id="Path-50" data-name="Path" d="M-1.381.448A.66.66,0,0,1-.759.637.66.66,0,0,1-.6,1.268a1.7,1.7,0,0,1-.74.3,1.16,1.16,0,0,1,0-.86Z" transform="translate(-198 193)" fill="#fff200"/>
    <path id="Path-51" data-name="Path" d="M-.689.687l-.66.12a1.46,1.46,0,0,0,0,.5.64.64,0,0,0,.72-.52Z" transform="translate(-167 225)" fill="#fff200"/>
    <path id="Path-52" data-name="Path" d="M-2.446.167A2.662,2.662,0,0,1-.179.36.419.419,0,0,1,0,.553.47.47,0,0,1-.179.886c-.537.614-1.292,1.3-2.128,1.069a1.039,1.039,0,0,1-.67-.719A.922.922,0,0,1-2.684.342l.7.123Z" transform="translate(-121 126)" fill="#fff200"/>
    <path id="Path-53" data-name="Path" d="M-.641.476A10.52,10.52,0,0,0-5.649.17a1.672,1.672,0,0,0-.775.284A1.652,1.652,0,0,0-6.99,1.9,3.339,3.339,0,0,0-4.706,4.848a3.876,3.876,0,0,0,3.625-.809A2.8,2.8,0,0,0-.013,2.2,1.577,1.577,0,0,0-1.06.5a.36.36,0,0,0-.092.313.347.347,0,0,0,.2.255Z" transform="translate(-98 244)" fill="#fc0"/>
    <path id="Path-54" data-name="Path" d="M-1.46.061A2.693,2.693,0,0,0-4,.863,2.955,2.955,0,0,0-2.2,2.92,1.7,1.7,0,0,0-.868,2.79,1.779,1.779,0,0,0-.019,1.727C.161.8-.959-.165-1.74.349Z" transform="translate(-94 251)" fill="#fc0"/>
    <path id="Path-55" data-name="Path" d="M-.716.327a3.56,3.56,0,0,0-.86.36h0a.14.14,0,0,0,0,.12c.16.28.66.34.66.66v.18c0,.06.18,0,.26,0A.84.84,0,0,0-.415.963.84.84,0,0,0-.8.347h.14Z" transform="translate(-84 239)" fill="#fc0"/>
    <path id="Path-56" data-name="Path" d="M-.37,0A4.829,4.829,0,0,0-1.835.78.155.155,0,0,0-1.98.936a.379.379,0,0,0,0,.245c.253.6,1.122.713,1.122,1.382a.736.736,0,0,0,0,.357c.09.178.308,0,.434,0A2.042,2.042,0,0,0-.007,1.486,1.888,1.888,0,0,0-.641.178h.235Z" transform="translate(-105 230)" fill="#fc0"/>
    <path id="Path-57" data-name="Path" d="M-.44.6a1.4,1.4,0,0,0-1.18.34,1.28,1.28,0,0,0,.4.4.48.48,0,0,0,.54,0A.74.74,0,0,0-.56.6l.18.12Z" transform="translate(-109 251)" fill="#fc0"/>
    <path id="Path-58" data-name="Path" d="M-2.478.5a.6.6,0,0,0-.373.16.409.409,0,0,0,0,.34A3.948,3.948,0,0,1-3,1.937l1.567-.96h.124c.174,0,.323.14.5.18A.762.762,0,0,0-.19.857C.681-.563-1.682.317-2.478.5Z" transform="translate(-108 254)" fill="#fc0"/>
    <path id="Path-59" data-name="Path" d="M-1.643.5A.361.361,0,0,0-1.9.661.583.583,0,0,0-1.9,1a4.413,4.413,0,0,1-.1.94L-.929.961h0c.136,0,.221.12.34.18s.34-.12.425-.32C.516-.559-1.1.321-1.643.5Z" transform="translate(-126 234)" fill="#fc0"/>
    <path id="Path-60" data-name="Path" d="M-1.166.975l-.38.28a.76.76,0,0,0,.82.28A.44.44,0,0,0-.459,1.2.44.44,0,0,0-.606.8c-.16,0-.46-.2-.36-.36Z" transform="translate(-119 249)" fill="#fc0"/>
    <path id="Path-61" data-name="Path" d="M-.946.38A.66.66,0,0,1-.46.736a.66.66,0,0,1-.007.6.66.66,0,0,1-.54.281.66.66,0,0,1-.54-.281A.66.66,0,0,1-1.522.729.66.66,0,0,1-1.006.4Z" transform="translate(-121 223)" fill="#fc0"/>
    <path id="Path-62" data-name="Path" d="M-1.411.8c.22-.28.58-.56.88-.38s.2.6,0,.9-.12.3-.26.32-.4-.64-.74-.64.1-.2.16-.12Z" transform="translate(-108 237)" fill="#fc0"/>
    <path id="Path-63" data-name="Path" d="M-.459.8A.62.62,0,0,1-.119.62a1.12,1.12,0,0,1-.54.8c-.16.12-.36.22-.52.12s-.14-.2-.22-.32-.52-.3-.48-.56a.3.3,0,0,1,.32-.24.94.94,0,0,1,.42.12l.86.44Z" transform="translate(-103 251)" fill="#fc0"/>
    <path id="Path-64" data-name="Path" d="M-1.277.769c-.28,0-.32.44,0,.6a.96.96,0,0,0,.78,0,.92.92,0,0,0-.66-.82Z" transform="translate(-99 255)" fill="#fc0"/>
    <path id="Path-65" data-name="Path" d="M-1.15.279a.8.8,0,0,0-.36.14.36.36,0,0,0-.16.34c0,.2.36.24.5.4s.16.44.36.54.42,0,.48-.3A1.04,1.04,0,0,0-.49.779.92.92,0,0,0-.85.359a.4.4,0,0,0-.52,0Z" transform="translate(-71 249)" fill="#fc0"/>
    <path id="Path-66" data-name="Path" d="M-.8.724a.26.26,0,0,1,.18.3.48.48,0,0,1-.24.28.38.38,0,0,1-.2,0A.32.32,0,0,1-1.3,1.2.32.32,0,0,1-1.382.964a.34.34,0,0,1,.36-.28.36.36,0,0,1,.32.34Z" transform="translate(-105 256)" fill="#fc0"/>
    <path id="Path-67" data-name="Path" d="M-.8.724a.26.26,0,0,1,.18.3.42.42,0,0,1-.24.28.38.38,0,0,1-.2,0,.34.34,0,0,1-.32-.34A.36.36,0,0,1-1,.684a.36.36,0,0,1,.3.34Z" transform="translate(-102 275)" fill="#fc0"/>
    <path id="Path-68" data-name="Path" d="M-.717,1.027A.38.38,0,0,0-.971.751a.38.38,0,0,0-.367.075.84.84,0,0,0,.18.38.36.36,0,0,0,.4,0,.2.2,0,0,0,.095-.17A.2.2,0,0,0-.757.867Z" transform="translate(-106 254)" fill="#fc0"/>
    <path id="Path-69" data-name="Path" d="M-.707,1.023A.38.38,0,0,0-.961.748a.38.38,0,0,0-.367.075.68.68,0,0,0,.18.38.3.3,0,0,0,.38,0,.2.2,0,0,0,.095-.17A.2.2,0,0,0-.767.863Z" transform="translate(-120 242)" fill="#fc0"/>
    <path id="Path-70" data-name="Path" d="M-.621.549a1.04,1.04,0,0,0-.94,0l.38.7a.64.64,0,0,0,.14.28.44.44,0,0,0,.34,0,.44.44,0,0,0,.24-.242A.58.58,0,0,0-.7.649Z" transform="translate(-108 249)" fill="#fc0"/>
    <path id="Path-71" data-name="Path" d="M-1.612,1.27l1.2-.8c.2.14,0,.46-.12.64a1.38,1.38,0,0,1-.6.42c-.24,0-.54-.1-.54-.36Z" transform="translate(-103 240)" fill="#fc0"/>
    <path id="Path-72" data-name="Path" d="M-.759.517A.5.5,0,0,0-1.23.4a.5.5,0,0,0-.349.338.74.74,0,0,0,.46.84.56.56,0,0,0,.44,0,.56.56,0,0,0,.26-.6,1.8,1.8,0,0,0-.34-.6Z" transform="translate(-98 237)" fill="#fc0"/>
    <path id="Path-73" data-name="Path" d="M-.724.808a.84.84,0,0,0-.9-.22.92.92,0,0,0,.26.64.66.66,0,0,0,.84.14c.26-.2.16-.7-.16-.7Z" transform="translate(-111 239)" fill="#fc0"/>
    <path id="Path-74" data-name="Path" d="M-1.043.64a.48.48,0,0,1,.46.4l-.62.4A.56.56,0,0,1-1.417,1,.56.56,0,0,1-1.2.56Z" transform="translate(-107 240)" fill="#fc0"/>
    <path id="Path-75" data-name="Path" d="M-.993.64l.2-.22a1.46,1.46,0,0,1,.18.64.5.5,0,0,1-.36.52c-.22,0-.48-.18-.4-.38A1.2,1.2,0,0,1-.993.64Z" transform="translate(-99 239)" fill="#fc0"/>
    <path id="Path-76" data-name="Path" d="M-1.125.548A.48.48,0,0,1-.741.912a.48.48,0,0,1-.184.5s-.28.1-.34,0a.44.44,0,0,1,0-.16v-.7h.14Z" transform="translate(-101 258)" fill="#fc0"/>
    <path id="Path-77" data-name="Path" d="M-.95.334a.591.591,0,0,0,.26.6.584.584,0,0,1,.34.58.44.44,0,0,1-.1.16c-.16,0-.28-.14-.42-.24a1.78,1.78,0,0,0-.34-.16.76.76,0,0,1-.44-.76.4.4,0,0,1,.42-.18.42.42,0,0,1,.36.32Z" transform="translate(-100 262)" fill="#fc0"/>
    <path id="Path-78" data-name="Path" d="M-1.04.887h-.24a.32.32,0,0,0,.22.34.28.28,0,0,0,.34-.2A.24.24,0,0,0-.8.828.24.24,0,0,0-1,.767Z" transform="translate(-103 262)" fill="#fc0"/>
    <path id="Path-79" data-name="Path" d="M-1.029.888h-.24a.32.32,0,0,0,.22.34A.26.26,0,0,0-.84,1.19a.26.26,0,0,0,.111-.182A.24.24,0,0,0-.813.822a.24.24,0,0,0-.2-.054Z" transform="translate(-103 268)" fill="#fc0"/>
    <path id="Path-80" data-name="Path" d="M-1.609,1.612c.18,0,.28-.22.24-.38a3.42,3.42,0,0,0-.26-.46.72.72,0,0,1,0-.54.32.32,0,0,1,.24-.18.42.42,0,0,1,.2,0,2,2,0,0,1,.72.72.84.84,0,0,1,0,.96.72.72,0,0,1-.64.22.68.68,0,0,1-.5-.48Z" transform="translate(-106 252)" fill="#fc0"/>
    <path id="Path-81" data-name="Path" d="M-1.6,1.593c.16,0,.28-.22.24-.38a3.42,3.42,0,0,0-.26-.46.6.6,0,0,1,0-.52.26.26,0,0,1,.24-.18.26.26,0,0,1,.2,0,2,2,0,0,1,.72.72.88.88,0,0,1,0,.98.7.7,0,0,1-.64.2.68.68,0,0,1-.5-.48Z" transform="translate(-130 245)" fill="#fc0"/>
    <path id="Path-82" data-name="Path" d="M-.713.609a.4.4,0,0,0-.323,0,.4.4,0,0,0-.217.239.6.6,0,0,0,.12.6s.16.14.24,0a.32.32,0,0,0,0-.18,3.606,3.606,0,0,1,.16-.78Z" transform="translate(-111 251)" fill="#fc0"/>
    <path id="Path-83" data-name="Path" d="M-.11,1.364A2.1,2.1,0,0,0-1.07.037a.282.282,0,0,0-.28,0c-.2,0-.16.337-.16.554s-.36.673-.38,1.03a1.5,1.5,0,0,0,.36.812c.26.337.68.733,1.06.495a.769.769,0,0,0,.28-.574A4.136,4.136,0,0,0-.19.948Z" transform="translate(-77 235)" fill="#fc0"/>
    <path id="Path-84" data-name="Path" d="M-.556.65c0-.34-.38-.5-.72-.54a.68.68,0,0,0-.6.14c-.2.22,0,.56,0,.8l.4.64a.4.4,0,0,0,.26.22.5.5,0,0,0,.26-.12A3.4,3.4,0,0,0-.036.65Z" transform="translate(-115 230)" fill="#fc0"/>
    <path id="Path-85" data-name="Path" d="M-.153,2.712C.829-.236-3.168-.918-4.72,1.348S-.884,5.259-.153,2.712Z" transform="translate(-104 232)" fill="#fc0"/>
    <path id="Path-86" data-name="Path" d="M-.823.66a.72.72,0,0,1,.28.57.72.72,0,0,1-.28.57,1.74,1.74,0,0,1-.62-.8A.62.62,0,0,1-1.406.509.62.62,0,0,1-1.023.2l.5.36Z" transform="translate(-99 251)" fill="#fc0"/>
    <path id="Path-87" data-name="Path" d="M-1.785.057c-.163-.132-.253,0-.2.227a3.217,3.217,0,0,0,.326.662l.9,1.4c.163.284.38.587.579.644s.2-.151.145-.379a2.532,2.532,0,0,0-.326-.719C-.772,1.1-1.387.17-1.93,0V.454Z" transform="translate(-138 187)" fill="#fc0"/>
    <path id="Path-88" data-name="Path" d="M-.752.805a.16.16,0,0,1,.13.06.16.16,0,0,1,.03.14.42.42,0,0,1-.14.26.48.48,0,0,1-.22.12.36.36,0,0,1-.4-.18.46.46,0,0,1,0-.46.28.28,0,0,1,.2-.14s.16,0,.16.12Z" transform="translate(-100 264)" fill="#fc0"/>
    <path id="Path-89" data-name="Path" d="M-1.011.87l-.26.12a.68.68,0,0,0,.22.36c.12,0,.34,0,.32-.16a.86.86,0,0,0,0-.14l-.34-.4Z" transform="translate(-107 256)" fill="#fc0"/>
    <path id="Path-90" data-name="Path" d="M-.583.43a1.86,1.86,0,0,0-.68.12.58.58,0,0,0-.36.54.42.42,0,0,0,.14.3.68.68,0,0,0,.92,0,.66.66,0,0,0,0-.92Z" transform="translate(-113 247)" fill="#fc0"/>
    <path id="Path-91" data-name="Path" d="M-1.37.709A.46.46,0,0,1-.913.645a.46.46,0,0,1,.283.365,1.62,1.62,0,0,1-.36.38.86.86,0,0,1-.3-.52Z" transform="translate(-121 239)" fill="#fc0"/>
    <path id="Path-92" data-name="Path" d="M-.876.71l-.38.28a.72.72,0,0,0,.2.3.46.46,0,0,0,.3-.54Z" transform="translate(-92 250)" fill="#fc0"/>
    <path id="Path-93" data-name="Path" d="M-1.77.682A1.6,1.6,0,0,1-.29.162a.38.38,0,0,1,.18,0,.32.32,0,0,1,0,.3c-.14.6-.38,1.32-.98,1.4a.8.8,0,0,1-.671-.311A.8.8,0,0,1-1.89.822l.5-.12Z" transform="translate(-92 174)" fill="#fc0"/>
    <path id="Path-94" data-name="Path" d="M-20.832,0l6.839,11.292L0,15.879-33.214,28.858h-12.3L-74,34-20.832,0Z" transform="translate(-201 249)" fill="#222264"/>
    <path id="Path-95" data-name="Path" d="M-26,2.286l7.319,5.778,2.426,9.769,2.426,7.13.622,17.086,3.089,7.587L0,64-9.372,49.658l-2.8-8.439v-16.3l-2.716-7.088-2.26-9.665L-26,0V2.286Z" transform="translate(-32 111)" fill="#ff8337"/>
    <path id="Path-96" data-name="Path" d="M-.953,0-4,13.522l2.176,1.989L-4,31-.746,15.51-2.57,12.433,0,2.344-.953,0Z" transform="translate(-44 153)" fill="#ff8337"/>
    <path id="Path-97" data-name="Path" d="M-8.7,0l4.878,1.75L0,.865H0L-2.529,3H-4.958L-9,1.423-8.7,0Z" transform="translate(-35 210)" fill="#ff8337"/>
    <path id="Path-98" data-name="Path" d="M-46,7.694-19.6,11-10.9,9.347l8.1-3.01L0,0-24.083,1.611-46,7.694Z" transform="translate(-15 258)" fill="#152264"/>
    <path id="Path-99" data-name="Path" d="M-54,7.132l27.486-5.065L-11.056,0,0,3.349l-12.441,1.9L-28.891,8-54,7.132Z" transform="translate(-13 217)" fill="#082264"/>
    <path id="Path-100" data-name="Path" d="M-51,20.568l12.506-3.109L-11.9,2.45,0,0-6.617,4.324l-7.241,3.315-4.682,4.674L-23.388,21-51,20.568Z" transform="translate(-168 265)" fill="#082264"/>
    <circle id="Oval" cx="39.308" cy="39.308" r="39.308" transform="translate(-201.222 159.65) rotate(29.52)" opacity="0.61" fill="url(#radial-gradient)" style="mix-blend-mode: screen;isolation: isolate"/>
    <circle id="Oval-2" data-name="Oval" cx="30.814" cy="30.814" r="30.814" transform="translate(-134.55 214.193) rotate(13.28)" opacity="0.61" fill="url(#radial-gradient-2)" style="mix-blend-mode: screen;isolation: isolate"/>
    <path id="Path-101" data-name="Path" d="M0,10.99C0,17.065-2.456,22-5.5,22S-11,17.065-11,10.99-8.544,0-5.5,0,0,4.914,0,10.99Z" transform="translate(-39 135)" opacity="0.61" fill="url(#radial-gradient-3)" style="mix-blend-mode: screen;isolation: isolate"/>
  </g>
</svg>
